<svg width="17" height="18" viewBox="0 0 17 18" fill="none" xmlns="http://www.w3.org/2000/svg">
<path d="M5.55907 4.14378C5.49448 4.07077 5.46474 3.97665 5.46899 3.88341C5.47324 3.79105 5.51063 3.70044 5.58202 3.63358L5.80638 3.42159L5.98146 3.62039L7.44073 2.24284L6.58573 1.27345L7.52656 0.384995C7.81722 0.110529 8.18949 -0.0152409 8.55579 0.00146844C8.92125 0.0190616 9.28075 0.18004 9.54593 0.480004L9.54932 0.483522C9.81194 0.78348 9.93347 1.16703 9.91648 1.54526C9.89948 1.92352 9.74395 2.29561 9.45414 2.57007C9.13798 2.86037 8.82607 3.16296 8.51331 3.45853L7.56057 2.3783L6.10131 3.75585L6.27639 3.95465L6.05203 4.16665C5.98148 4.2335 5.89054 4.26429 5.80047 4.25989C5.71123 4.25549 5.62369 4.21679 5.55909 4.1429L5.55907 4.14378ZM9.57657 2.70379C9.57402 2.70642 9.57232 2.70818 9.56977 2.70994L9.05134 3.19992L10.1434 4.48158L11.4931 4.84576C11.6563 4.63113 11.8211 4.41033 11.9877 4.19482L10.6848 3.84296C10.6687 3.83856 10.6525 3.82888 10.6406 3.81481L9.64028 2.64135C9.61988 2.66246 9.59949 2.68357 9.57824 2.7038L9.57657 2.70379ZM10.1723 5.62679C8.98248 3.90355 7.66764 4.41901 6.58413 4.84301C5.98071 5.07964 5.44526 5.289 5.00927 5.10337C3.91204 4.6354 3.14799 4.4577 2.5285 4.49905C1.91657 4.53951 1.44063 4.79549 0.9188 5.19575C0.879704 5.22566 0.840609 5.2582 0.801515 5.29339C0.306035 5.73939 -0.00502966 6.47653 6.15587e-05 7.37467C0.00516104 8.28247 0.33408 9.35304 1.12022 10.4544C1.24005 10.6215 1.37093 10.7913 1.51542 10.9629C1.76273 11.2567 1.74659 12.0492 1.72874 12.9729C1.71344 13.7285 1.69644 14.5747 1.81798 15.2829C1.83413 15.3762 1.88767 15.6515 1.94802 15.9567C2.04235 16.4335 2.15284 16.9851 2.16729 17.0519C2.25143 17.4416 2.38656 17.7037 2.54549 17.8533C2.64323 17.9457 2.74947 17.9932 2.85656 17.9993C2.96365 18.0055 3.07498 17.9703 3.18037 17.8973C3.35715 17.775 3.51863 17.5498 3.63166 17.2358C3.81864 16.7159 3.82969 16.0896 3.84159 15.4386C3.84839 15.0595 3.85519 14.6724 3.89598 14.2924C3.91468 14.1183 3.96907 13.6415 4.16965 13.221C4.37787 12.7847 4.73908 12.4099 5.36969 12.4759C5.79039 12.5199 6.06151 12.8207 6.24423 13.258C6.41761 13.674 6.51026 14.2177 6.57825 14.7754C6.65814 15.429 6.72953 15.9752 6.81027 16.4186C6.88931 16.8531 6.976 17.183 7.08648 17.41C7.20121 17.6448 7.3185 17.7865 7.43409 17.8559C7.54458 17.9219 7.65676 17.9202 7.7647 17.8709C7.88453 17.8164 8.00268 17.7064 8.11147 17.5639C8.38258 17.2103 8.59165 16.6719 8.6537 16.277C8.6673 16.1899 8.6928 16.0843 8.72424 15.9559C8.81008 15.6031 8.93757 15.0771 8.95372 14.3954C8.97836 13.3732 8.92822 12.2745 8.90443 11.7442C8.89593 11.5559 8.89083 11.4372 8.89338 11.4108C8.93672 10.9806 9.25459 10.5232 9.61324 10.0086C9.85886 9.65584 10.124 9.27495 10.3263 8.86415C10.5864 8.33812 10.7257 7.75489 10.6977 7.17169C10.6722 6.64388 10.5099 6.11522 10.1742 5.62875L10.1723 5.62679ZM16.9273 7.38084L12.7162 3.89395C12.712 3.89131 12.7077 3.8878 12.7035 3.8834C12.6635 3.85261 12.6151 3.84117 12.5675 3.84645C12.5207 3.85173 12.4757 3.8746 12.4434 3.91331C12.44 3.9177 12.4375 3.9221 12.4332 3.9265L11.6012 5.00319C11.5986 5.00671 11.5969 5.00935 11.5944 5.01199L11.5187 5.10963C11.4856 5.15185 11.4728 5.20551 11.4779 5.25653C11.483 5.30755 11.5077 5.35594 11.5485 5.39024L15.7666 8.88254C15.8074 8.91684 15.8592 8.93004 15.9085 8.92476C15.9578 8.91948 16.0045 8.89397 16.0377 8.85175L16.9581 7.66068C16.9913 7.61846 17.004 7.5648 16.9989 7.51378C16.9938 7.46276 16.9692 7.41437 16.9284 7.38007L16.9273 7.38084Z" fill="#005963"/>
</svg>
