<svg width="19" height="21" viewBox="0 0 19 21" fill="none" xmlns="http://www.w3.org/2000/svg">
<path d="M6.19452 4.75774C6.12254 4.67638 6.0894 4.5715 6.09414 4.46761C6.09887 4.36469 6.14054 4.26373 6.22009 4.18923L6.47009 3.95301L6.66518 4.17453L8.29122 2.63954L7.33851 1.55937L8.38686 0.569375C8.71074 0.263542 9.12555 0.123398 9.53372 0.142017C9.94094 0.161621 10.3415 0.340997 10.637 0.675242L10.6408 0.679163C10.9334 1.0134 11.0688 1.44078 11.0499 1.86225C11.031 2.28373 10.8577 2.69834 10.5347 3.00417C10.1824 3.32765 9.83488 3.66482 9.48638 3.99417L8.42476 2.79048L6.79872 4.32547L6.99381 4.54699L6.74381 4.78322C6.6652 4.85771 6.56387 4.89202 6.4635 4.88712C6.36406 4.88222 6.2665 4.84007 6.19452 4.75774ZM10.6712 3.15317C10.6683 3.15611 10.6664 3.15807 10.6636 3.16003L10.0859 3.706L11.3028 5.13414L12.8067 5.53995C12.9885 5.30078 13.1722 5.05475 13.3579 4.81461L11.9061 4.42253C11.8881 4.41763 11.8701 4.40685 11.8568 4.39117L10.7421 3.0836C10.7194 3.10712 10.6967 3.13065 10.673 3.15319L10.6712 3.15317ZM11.335 6.41023C10.0092 4.49005 8.54407 5.06442 7.33672 5.53687C6.66434 5.80055 6.0677 6.03384 5.58188 5.827C4.35926 5.30554 3.50788 5.10753 2.81759 5.1536C2.13573 5.19869 1.60539 5.48393 1.02393 5.92993C0.980364 5.96326 0.9368 5.99952 0.893239 6.03873C0.341133 6.5357 -0.00548241 7.35709 0.000190664 8.35787C0.00587295 9.36942 0.372383 10.5623 1.24836 11.7896C1.38189 11.9758 1.52773 12.165 1.68873 12.3561C1.96431 12.6835 1.94632 13.5667 1.92643 14.5959C1.90939 15.4379 1.89045 16.3808 2.02587 17.1699C2.04387 17.2738 2.10353 17.5806 2.17077 17.9207C2.27589 18.452 2.399 19.0666 2.4151 19.1411C2.50885 19.5753 2.65943 19.8674 2.83653 20.034C2.94544 20.137 3.06382 20.1899 3.18315 20.1968C3.30247 20.2036 3.42653 20.1644 3.54397 20.0831C3.74095 19.9468 3.92089 19.6959 4.04683 19.3459C4.25518 18.7667 4.26749 18.0688 4.28075 17.3434C4.28832 16.9209 4.2959 16.4897 4.34136 16.0662C4.36219 15.8721 4.4228 15.3409 4.6463 14.8724C4.87832 14.3862 5.28081 13.9686 5.98349 14.0421C6.45227 14.0911 6.75438 14.4264 6.95798 14.9135C7.15117 15.3772 7.25441 15.9829 7.33017 16.6044C7.41919 17.3326 7.49874 17.9413 7.58871 18.4354C7.67678 18.9196 7.77338 19.2872 7.89648 19.54C8.02433 19.8018 8.15502 19.9596 8.28383 20.037C8.40694 20.1105 8.53194 20.1086 8.65221 20.0537C8.78574 19.9929 8.91739 19.8704 9.03861 19.7116C9.34072 19.3175 9.57367 18.7177 9.64282 18.2776C9.65797 18.1805 9.68638 18.0629 9.72142 17.9198C9.81707 17.5267 9.95913 16.9406 9.97712 16.1809C10.0046 15.0419 9.94871 13.8177 9.9222 13.2267C9.91273 13.017 9.90704 12.8846 9.90989 12.8552C9.95818 12.3759 10.3124 11.8662 10.712 11.2928C10.9857 10.8997 11.2812 10.4753 11.5066 10.0176C11.7964 9.43143 11.9517 8.78155 11.9204 8.13169C11.892 7.54356 11.7111 6.95448 11.3371 6.41242L11.335 6.41023ZM18.862 8.36475L14.1696 4.47936C14.1649 4.47642 14.1602 4.4725 14.1554 4.46759C14.1109 4.43329 14.0569 4.42055 14.0039 4.42643C13.9518 4.43231 13.9016 4.45779 13.8656 4.50092C13.8618 4.50582 13.859 4.51072 13.8543 4.51562L12.9271 5.71537C12.9243 5.71929 12.9224 5.72223 12.9196 5.72517L12.8353 5.83397C12.7983 5.88102 12.7841 5.94081 12.7898 5.99766C12.7955 6.05451 12.823 6.10842 12.8684 6.14665L17.5686 10.0381C17.614 10.0763 17.6718 10.091 17.7267 10.0851C17.7817 10.0792 17.8337 10.0508 17.8707 10.0038L18.8963 8.67657C18.9332 8.62952 18.9475 8.56973 18.9418 8.51287C18.9361 8.45602 18.9086 8.40211 18.8632 8.36389L18.862 8.36475Z" fill="white"/>
</svg>
